<svg xmlns="http://www.w3.org/2000/svg" enable-background="new 0 0 512 512" viewBox="0 0 512 512" id="resume"><linearGradient id="a" x1="256" x2="256" y1=".521" y2="511.479" gradientUnits="userSpaceOnUse"><stop offset="0" stop-color="#5df5ff"></stop><stop offset=".547" stop-color="#55d0ff"></stop><stop offset="1" stop-color="#4eaeff"></stop></linearGradient><path fill="url(#a)" d="M447.811,52.538l-0.859,440.144c0,5.051-1.979,9.763-5.545,13.304c-3.541,3.541-8.253,5.493-13.278,5.493h-0.026l-312.704-0.625c-5.051,0-9.763-1.953-13.33-5.519c-3.541-3.567-5.493-8.305-5.493-13.33l0.026-8.435l299.139,0.599c13.226,0,24.004-10.752,24.03-24.004l0.703-363.94c0.078-2.135-0.729-4.166-2.265-5.702l-56.808-56.99l67.638,0.13C439.402,33.689,447.837,42.15,447.811,52.538z M367.61,337.012l-255.99-0.502c-0.005,0-0.01,0-0.015,0c-4.41,0-7.955,3.569-7.96,7.944c-0.011,4.407,3.552,7.967,7.943,7.974l255.99,0.503c0.005,0,0.01,0,0.015,0c4.41,0,7.955-3.569,7.96-7.944C375.563,340.585,372.002,337.02,367.61,337.012z M336.6,93.281l77.062,0.059L323.072,2.443l-0.075,77.179C322.982,87.149,329.061,93.268,336.6,93.281z M203.403,127.571l-10.892-0.022c-0.003,0-0.008,0-0.01,0c-1.566,0-3.01,0.772-3.867,2.064c-7.722,9.841-9.096,17.947-17.38,17.947c-0.27-0.07-5.147,0.218-8.222-4.396l-9.079-13.603c-0.864-1.314-2.311-2.092-3.88-2.096l-10.854-0.022c-0.015,0-0.028,0-0.043,0c-19.238,0-22.894,19.578-23.396,20.324c12.296,16.997,32.774,28.145,55.398,28.19c0.044,0,0.091,0,0.135,0c22.211,0,42.698-10.732,55.41-28.012C226.058,146.951,222.713,127.606,203.403,127.571z M367.696,292.865l-255.99-0.502c-0.005,0-0.01,0-0.015,0c-4.381,0-7.95,3.561-7.96,7.944c-0.008,4.39,3.557,7.967,7.945,7.976l255.987,0.502c0.005,0,0.01,0,0.015,0c4.41,0,7.955-3.569,7.96-7.944C375.65,296.438,372.089,292.873,367.696,292.865z M255.871,425.088l-144.424-0.285c-0.005,0-0.01,0-0.015,0c-4.393,0-7.955,3.552-7.96,7.944c-0.011,4.399,3.542,7.968,7.943,7.976l144.424,0.284c4.63-0.111,7.971-3.668,7.976-7.944C263.825,428.655,260.262,425.096,255.871,425.088z M367.783,248.719l-255.99-0.503c-0.005,0-0.01,0-0.015,0c-4.381,0-7.95,3.561-7.96,7.944c-0.008,4.39,3.557,7.967,7.945,7.976l255.99,0.502c0.005,0,0.01,0,0.015,0c4.388,0,7.953-3.552,7.958-7.944C375.736,252.286,372.173,248.727,367.783,248.719z M152.159,103.741c1.975,9.089,9.847,15.451,19.142,15.47c0.013,0,0.025,0,0.038,0c9.148,0,17.202-6.467,19.163-15.39l3.346-15.107c2.712-12.233-6.602-23.828-19.124-23.852l-6.608-0.013c-0.013,0-0.025,0-0.038,0c-12.542,0-21.838,11.556-19.203,23.781L152.159,103.741z M112.169,142.331c-6.29-10.555-9.638-22.663-9.613-35.302c0.074-38.011,30.865-68.658,68.753-68.658c0.046,0,0.094,0,0.14,0c38.034,0.074,68.73,30.914,68.657,68.927c-0.024,12.611-3.421,24.698-9.758,35.233l-0.434-1.246c-3.9-11.296-14.55-18.899-26.5-18.922l-10.892-0.022c-0.008,0-0.013,0-0.02,0c-3.318,0-6.384,1.642-8.194,4.376l-9.176,13.574c-1.857,2.767-5.933,2.74-7.767-0.017l-9.071-13.591c-1.82-2.765-4.889-4.419-8.21-4.426l-10.854-0.022c-0.018,0-0.036,0-0.053,0C117.916,122.237,112.365,142.071,112.169,142.331z M143.785,89.732l3.285,15.115c2.502,11.5,12.461,19.546,24.222,19.571c0.015,0,0.031,0,0.048,0c11.576,0,21.769-8.185,24.247-19.475l3.346-15.102c3.426-15.473-8.34-30.153-24.199-30.185l-6.608-0.013c-0.018,0-0.033,0-0.051,0C152.224,59.642,140.448,74.257,143.785,89.732z M367.524,381.16l-255.99-0.502c-0.005,0-0.01,0-0.015,0c-4.393,0-7.955,3.552-7.96,7.944c-0.011,4.407,3.552,7.967,7.943,7.974l255.99,0.503c0.005,0,0.01,0,0.015,0c4.41,0,7.955-3.569,7.96-7.944C375.477,384.732,371.916,381.168,367.524,381.16z M368.037,118.924l-90.438-0.178c-0.005,0-0.01,0-0.015,0c-4.393,0-7.955,3.552-7.96,7.944c-0.01,4.399,3.542,7.968,7.943,7.976l90.44,0.178c0.005,0,0.01,0,0.015,0c4.381,0,7.95-3.561,7.96-7.944C375.99,122.51,372.425,118.933,368.037,118.924z M415.263,98.548l-0.698,361.617c-0.026,10.362-8.461,18.797-18.823,18.797c-0.026,0-0.026,0-0.052,0l-312.703-0.625c-10.388-0.026-18.823-8.487-18.797-18.875l0.859-440.144C65.074,8.956,73.509,0.521,83.871,0.521c0.026,0,0.026,0,0.052,0l233.944,0.463l-0.076,78.631c-0.021,10.417,8.397,18.854,18.801,18.873L415.263,98.548z M97.349,107.019c-0.08,41.316,33.402,74.063,73.818,74.146c0.049,0,0.096,0,0.145,0c0.002,0,0.003,0,0.005,0c40.542,0,73.916-32.826,73.996-73.856c0.084-40.912-32.965-74.063-73.853-74.144c-0.051,0-0.099,0-0.15,0C130.578,33.164,97.428,66.107,97.349,107.019z M269.021,433.073c0.016-7.29-5.878-13.178-13.139-13.192l-144.424-0.285c-0.01,0-0.018,0-0.025,0c-7.319,0-13.157,5.932-13.167,13.141c-0.016,7.291,5.877,13.18,13.139,13.193l144.424,0.283c0.01,0,0.018,0,0.025,0C263.147,446.214,269.005,440.315,269.021,433.073z M380.673,389.146c0.016-7.29-5.877-13.18-13.139-13.193l-255.99-0.502c-0.01,0-0.018,0-0.025,0c-7.308,0-13.157,5.919-13.167,13.141c-0.016,7.29,5.878,13.178,13.139,13.192l255.99,0.503c0.01,0,0.018,0,0.025,0C374.799,402.286,380.657,396.388,380.673,389.146z M380.76,344.998c0.016-7.29-5.877-13.18-13.139-13.193l-255.99-0.502c-0.01,0-0.018,0-0.025,0c-7.319,0-13.157,5.932-13.167,13.141c-0.016,7.29,5.878,13.178,13.139,13.192l255.99,0.503c0.01,0,0.018,0,0.025,0C374.885,358.139,380.744,352.241,380.76,344.998z M380.846,300.851c0.016-7.29-5.877-13.18-13.139-13.193l-255.99-0.502c-0.008,0-0.018,0-0.025,0c-7.249,0-13.152,5.89-13.167,13.141c-0.013,7.26,5.883,13.179,13.142,13.193l255.987,0.502c0.01,0,0.018,0,0.025,0C374.972,313.992,380.83,308.093,380.846,300.851z M380.932,256.704c0.016-7.29-5.878-13.178-13.139-13.192l-255.99-0.503c-0.008,0-0.018,0-0.025,0c-7.249,0-13.152,5.89-13.167,13.141c-0.013,7.26,5.883,13.179,13.142,13.193l255.99,0.502c0.01,0,0.018,0,0.025,0C375.046,269.844,380.917,263.959,380.932,256.704z M381.021,212.557c0.013-7.26-5.883-13.178-13.142-13.192l-255.99-0.503c-0.008,0-0.018,0-0.025,0c-7.249,0-13.152,5.89-13.167,13.141c-0.013,7.26,5.883,13.179,13.142,13.193l255.99,0.502c0.008,0,0.018,0,0.025,0C375.103,225.697,381.006,219.808,381.021,212.557z M381.108,168.411c0.013-7.26-5.883-13.179-13.142-13.193l-90.438-0.178c-0.01,0-0.018,0-0.025,0c-7.319,0-13.157,5.932-13.167,13.141c-0.016,7.29,5.877,13.18,13.139,13.193l90.44,0.178c0.008,0,0.018,0,0.025,0C375.189,181.551,381.093,175.662,381.108,168.411z M381.189,126.91c0.013-7.26-5.883-13.179-13.142-13.193l-90.438-0.178c-0.01,0-0.018,0-0.025,0c-7.319,0-13.157,5.932-13.167,13.141c-0.016,7.291,5.877,13.18,13.139,13.193l90.44,0.178c0.008,0,0.018,0,0.025,0C375.27,140.051,381.174,134.161,381.189,126.91z M367.956,160.425l-90.438-0.178c-0.005,0-0.01,0-0.015,0c-4.393,0-7.955,3.552-7.96,7.944c-0.011,4.403,3.551,7.968,7.943,7.976l90.44,0.178c0.005,0,0.01,0,0.015,0c4.381,0,7.95-3.561,7.96-7.944C375.909,164.011,372.344,160.434,367.956,160.425z M367.869,204.572l-255.99-0.503c-0.005,0-0.01,0-0.015,0c-4.381,0-7.95,3.561-7.96,7.944c-0.008,4.39,3.557,7.967,7.945,7.976l255.99,0.502c0.005,0,0.01,0,0.015,0c4.381,0,7.95-3.561,7.96-7.944C375.822,208.157,372.258,204.581,367.869,204.572z"></path></svg>